<svg xmlns="http://www.w3.org/2000/svg" width="20.223" height="20" viewBox="0 0 20.223 20">
  <g id="crown" transform="translate(-122.183 -123.595)">
    <g id="Group_23" data-name="Group 23" transform="translate(122.183 123.595)">
      <g id="Group_21" data-name="Group 21" transform="translate(2.526 17.676)">
        <g id="Group_18" data-name="Group 18">
          <g id="Group_17" data-name="Group 17">
            <path id="Path_88" data-name="Path 88" d="M164.462,348.425h-8.1a1.164,1.164,0,1,1,0-2.324h8.1a1.164,1.164,0,1,1,0,2.324Z" transform="translate(-155.123 -346.101)" fill="#fed12f"/>
          </g>
        </g>
        <g id="Group_20" data-name="Group 20" transform="translate(11.523)">
          <g id="Group_19" data-name="Group 19">
            <path id="Path_89" data-name="Path 89" d="M299.773,348.425h-1.325a1.162,1.162,0,0,1,0-2.324h1.325a1.162,1.162,0,1,1,0,2.324Z" transform="translate(-297.286 -346.101)" fill="#fed12f"/>
          </g>
        </g>
      </g>
      <g id="Group_22" data-name="Group 22" transform="translate(0 0)">
        <path id="Path_90" data-name="Path 90" d="M138.345,139.737H126.307a1.562,1.562,0,0,1-1.5-1.124l-2.535-8.449a2.018,2.018,0,0,1,.554-2.065,1.981,1.981,0,0,1,2.084-.407l2.4.928,3.415-4.271a2,2,0,0,1,3.124,0l3.415,4.272,2.416-.933a1.983,1.983,0,0,1,2.079.4,2.019,2.019,0,0,1,.563,2.056l-2.472,8.458A1.58,1.58,0,0,1,138.345,139.737Zm-11.23-1.827h0Z" transform="translate(-122.183 -123.595)" fill="#fed12f"/>
      </g>
    </g>
  </g>
</svg>
