
<svg xmlns="http://www.w3.org/2000/svg" width="138.691" height="31.322" viewBox="0 0 138.691 31.322"><defs><style>.a{fill:#5388f2;}.b{fill:#979797;}</style></defs><path class="a" d="M2604.8,615.52l-9.189-9.19a6.619,6.619,0,0,0-9.355,0l-8.911,8.907a6.62,6.62,0,0,0,0,9.358l9.19,9.187a6.623,6.623,0,0,0,9.355,0l8.91-8.907A6.625,6.625,0,0,0,2604.8,615.52Zm-2.167,7.188-8.91,8.908a3.551,3.551,0,0,1-5.02,0l-9.187-9.187a3.547,3.547,0,0,1,0-5.024l8.907-8.908a3.5,3.5,0,0,1,1.033-.72v9.3a3.353,3.353,0,1,0,3.065,0v-9.245a3.486,3.486,0,0,1,.923.665l9.189,9.19a3.552,3.552,0,0,1,0,5.021Z" transform="translate(-2575.412 -604.395)"/><path class="b" d="M2728.96,632.086a1.345,1.345,0,0,0-.979-.376,1.14,1.14,0,0,0-.749.212,1.69,1.69,0,0,0-.551.735l-4.289,9.864-4.319-9.892a1.526,1.526,0,0,0-.6-.7,1.616,1.616,0,0,0-.879-.252,1.43,1.43,0,0,0-1.04.4,1.2,1.2,0,0,0-.413.87,2.037,2.037,0,0,0,.181.828l5.47,12.117a1.741,1.741,0,0,0,.572.726,1.243,1.243,0,0,0,.746.254l.249-.026a1.39,1.39,0,0,0,.76-.271,1.554,1.554,0,0,0,.509-.673l5.5-12.131a2.036,2.036,0,0,0,.209-.766A1.232,1.232,0,0,0,2728.96,632.086Z" transform="translate(-2675.642 -623.968)"/><path class="b" d="M2798.007,639.084a1.228,1.228,0,0,0,.458-.942,7.434,7.434,0,0,0-.993-3.729,7.672,7.672,0,0,0-2.654-2.754,6.615,6.615,0,0,0-3.514-1.018,6.982,6.982,0,0,0-3.564.975,7.277,7.277,0,0,0-2.689,2.821,8.759,8.759,0,0,0-1.026,4.3,8.024,8.024,0,0,0,.966,3.938,6.929,6.929,0,0,0,2.728,2.731,8.852,8.852,0,0,0,6.876.537,6.8,6.8,0,0,0,2.117-1.1,1.572,1.572,0,0,0,.721-1.224,1.138,1.138,0,0,0-.356-.831,1.4,1.4,0,0,0-1.732-.122c-.082.048-.261.159-.52.325a5.154,5.154,0,0,1-1.14.5,6.5,6.5,0,0,1-1.97.234,4.816,4.816,0,0,1-3.025-1.043,4.733,4.733,0,0,1-1.722-2.889l-.067-.34h10.052A1.583,1.583,0,0,0,2798.007,639.084Zm-2.745-2h-8.332l.065-.336c.438-2.282,1.889-3.435,4.308-3.435a4.111,4.111,0,0,1,2.649.944,3.334,3.334,0,0,1,1.309,2.31Z" transform="translate(-2725.05 -623.222)"/><path class="b" d="M2865.266,644.519l-4.382-5.445,4.206-5.119a1.457,1.457,0,0,0,.348-.967,1.242,1.242,0,0,0-.4-.9,1.328,1.328,0,0,0-.99-.4,1.394,1.394,0,0,0-1.182.673l-3.579,4.741-3.845-4.783a1.5,1.5,0,0,0-2.278-.192,1.37,1.37,0,0,0-.455,1.043,1.353,1.353,0,0,0,.319.882l4.382,5.445-4.235,5.179a1.438,1.438,0,0,0-.375.939,1.109,1.109,0,0,0,.458.871,1.5,1.5,0,0,0,1,.4,1.369,1.369,0,0,0,.647-.158,1.58,1.58,0,0,0,.537-.463l3.667-4.667,3.751,4.662a1.489,1.489,0,0,0,1.221.658,1.467,1.467,0,0,0,1.04-.452,1.4,1.4,0,0,0,.473-1.06A1.359,1.359,0,0,0,2865.266,644.519Z" transform="translate(-2774.314 -623.968)"/><path class="b" d="M2929.854,639.086a1.224,1.224,0,0,0,.458-.941,7.405,7.405,0,0,0-.992-3.729,7.662,7.662,0,0,0-2.655-2.754,6.617,6.617,0,0,0-3.514-1.018,6.984,6.984,0,0,0-3.565.976,7.293,7.293,0,0,0-2.688,2.821,8.789,8.789,0,0,0-1.023,4.3,8.05,8.05,0,0,0,.963,3.938,6.94,6.94,0,0,0,2.731,2.731,8.854,8.854,0,0,0,6.876.537,6.825,6.825,0,0,0,2.117-1.1,1.571,1.571,0,0,0,.721-1.224,1.14,1.14,0,0,0-.359-.831,1.4,1.4,0,0,0-1.733-.122c-.079.048-.26.159-.52.325a5.275,5.275,0,0,1-1.137.5,6.53,6.53,0,0,1-1.97.235,4.824,4.824,0,0,1-3.028-1.043,4.734,4.734,0,0,1-1.722-2.889l-.068-.339H2928.8A1.572,1.572,0,0,0,2929.854,639.086Zm-11.077-2,.065-.336a3.919,3.919,0,0,1,4.308-3.435,4.11,4.11,0,0,1,2.649.944,3.326,3.326,0,0,1,1.309,2.31l0,.517Z" transform="translate(-2819.625 -623.223)"/><path class="b" d="M2993.339,610.779a1.371,1.371,0,0,0-1.032-.427,1.474,1.474,0,0,0-1.512,1.51v18.181a1.474,1.474,0,0,0,.418,1.082,1.379,1.379,0,0,0,1.035.43,1.478,1.478,0,0,0,1.512-1.512V611.862A1.49,1.49,0,0,0,2993.339,610.779Z" transform="translate(-2873.365 -608.668)"/><path class="b" d="M3035.264,639.593a4.3,4.3,0,0,0-1.685-1.354,19.323,19.323,0,0,0-2.607-.9c-.769-.218-1.374-.4-1.8-.551a3.06,3.06,0,0,1-1.148-.681,1.658,1.658,0,0,1-.5-1.247c0-.868.438-1.9,2.519-1.9a4.809,4.809,0,0,1,2.013.407,4.016,4.016,0,0,1,1.47,1.108,1.149,1.149,0,0,0,.84.308,1.211,1.211,0,0,0,.769-.263,1.091,1.091,0,0,0,.449-.9,1.357,1.357,0,0,0-.319-.882,4.973,4.973,0,0,0-2.233-1.561,7.4,7.4,0,0,0-5.567.009,5.079,5.079,0,0,0-2.007,1.532,3.638,3.638,0,0,0-.752,2.284,3.7,3.7,0,0,0,.715,2.395,4.662,4.662,0,0,0,1.75,1.349,21.085,21.085,0,0,0,2.742.927,11.219,11.219,0,0,1,2.491.907,1.681,1.681,0,0,1,.922,1.541c0,.876-.444,1.936-2.567,2.018a5.823,5.823,0,0,1-2.437-.466,6.528,6.528,0,0,1-1.925-1.413,1.375,1.375,0,0,0-.973-.472,1.28,1.28,0,0,0-.7.218,1.263,1.263,0,0,0-.634,1.057,1.15,1.15,0,0,0,.207.712,5.771,5.771,0,0,0,2.612,2,9.76,9.76,0,0,0,3.517.628,6.851,6.851,0,0,0,2.644-.537,5.162,5.162,0,0,0,2.078-1.546,3.668,3.668,0,0,0,.791-2.341A3.888,3.888,0,0,0,3035.264,639.593Z" transform="translate(-2897.251 -623.225)"/></svg>