<svg xmlns="http://www.w3.org/2000/svg" width="29.487" height="21.271" viewBox="0 0 29.487 21.271"><defs><style>.a{fill:#fc0;}</style></defs><path class="a" d="M-559.353,599.521l-3.961-3.961a5.793,5.793,0,0,0-4.108-1.76h-1.614l-.147.587a4.588,4.588,0,0,1-.734,1.467.144.144,0,0,1-.147.147,4.866,4.866,0,0,1-3.814,1.907h0A4.866,4.866,0,0,1-577.691,596a.144.144,0,0,0-.147-.147,6.848,6.848,0,0,1-.733-1.467l-.147-.587h-1.32a5.327,5.327,0,0,0-4.108,1.76l-3.961,3.961a1.12,1.12,0,0,0-.293.734c0,.293.147.44.293.734l3.961,3.961a.823.823,0,0,0,1.32,0l1.027-1.027v10.269a.846.846,0,0,0,.88.88h14.523a.846.846,0,0,0,.88-.88V603.922l1.027,1.027a.823.823,0,0,0,1.32,0l3.961-3.961a1.121,1.121,0,0,0,.293-.734A1.572,1.572,0,0,0-559.353,599.521Z" transform="translate(588.4 -593.8)"/></svg>